<svg width="30" height="29" viewBox="0 0 30 29" fill="none" xmlns="http://www.w3.org/2000/svg">
<path d="M29.9527 26.888L26.2028 15.6383C26.0739 15.2574 25.7165 14.9996 25.3122 14.9996H23.5896C21.1873 19.8452 17.0917 23.4662 16.8456 23.683C16.3418 24.1283 15.6797 24.3744 14.9941 24.3744C14.3086 24.3744 13.6524 24.1224 13.1368 23.6713C12.8965 23.4662 8.80096 19.8393 6.40455 14.9996H4.6878C4.28352 14.9996 3.92611 15.2574 3.79721 15.6383L0.0473169 26.888C-0.0464303 27.1751 0.000443306 27.4856 0.176219 27.7317C0.351995 27.9778 0.633237 28.1242 0.937916 28.1242H29.0621C29.3668 28.1242 29.648 27.9778 29.8238 27.7317C29.9996 27.4915 30.0464 27.1751 29.9527 26.888Z" fill="#4F4F4F"/>
<path d="M15 0C10.3478 0 6.56274 3.78504 6.56274 8.43725C6.56274 15.3452 14.0625 21.9896 14.3848 22.265C14.5606 22.4232 14.7832 22.4993 15 22.4993C15.2168 22.4993 15.4394 22.4232 15.6152 22.265C15.9375 21.9896 23.4372 15.3452 23.4372 8.43725C23.4372 3.78504 19.6522 0 15 0Z" fill="#FFC107"/>
<path d="M15 12.1872C17.071 12.1872 18.7499 10.5083 18.7499 8.43727C18.7499 6.36626 17.071 4.68738 15 4.68738C12.929 4.68738 11.2501 6.36626 11.2501 8.43727C11.2501 10.5083 12.929 12.1872 15 12.1872Z" fill="#FAFAFA"/>
</svg>
